<svg width="138" height="312" viewBox="0 0 138 312" fill="none" xmlns="http://www.w3.org/2000/svg">
    <path d="M136.5 1.5L50.3953 110.015C38.8293 124.592 16.4188 123.682 6.07299 108.215L3.97623 105.081C-7.32981 88.1787 4.78476 65.5 25.1195 65.5V65.5C32.6495 65.5 39.7924 68.8361 44.6256 74.6102L75.0972 111.014C86.4797 124.613 89.7165 143.262 83.582 159.901L73.7689 186.517C65.9151 207.819 82.7026 230.115 105.346 228.455L108.753 228.205C122.135 227.223 132.807 216.641 133.901 203.269V203.269C135.265 186.589 121.403 172.638 104.715 173.896L88.3498 175.129C62.0117 177.115 44.2995 202.997 51.986 228.267L77 310.5"
          stroke="black" stroke-width="2" stroke-linecap="round" stroke-dasharray="10 25"/>
</svg>
